<svg xmlns="http://www.w3.org/2000/svg" xmlns:xlink="http://www.w3.org/1999/xlink" width="1920" zoomAndPan="magnify" viewBox="0 0 1440 809.999993" height="1080" preserveAspectRatio="xMidYMid meet" version="1.0"><defs><clipPath id="33dc57dbe3"><path d="M 540 85 L 708 85 L 708 424.816406 L 540 424.816406 Z M 540 85 " clip-rule="nonzero"/></clipPath><clipPath id="40d8b3f506"><path d="M 592.804688 424.480469 C 574.261719 424.480469 559.988281 417.675781 549.957031 404.09375 C 539.949219 390.488281 537.789062 371.011719 543.472656 345.691406 L 582.050781 178.992188 L 548.59375 180.136719 C 546.328125 180.136719 544.699219 179.097656 543.765625 177.015625 C 542.832031 174.933594 542.753906 172.558594 543.527344 169.917969 C 544.273438 166.53125 545.605469 163.597656 547.472656 161.140625 C 549.34375 158.6875 551.609375 157.273438 554.277344 156.898438 C 568.257812 154.230469 579.597656 149.988281 588.296875 144.117188 C 596.992188 138.25 603.824219 131.847656 608.734375 124.882812 C 613.640625 117.917969 620.285156 107.191406 628.609375 92.8125 C 631.597656 87.902344 636.320312 85.449219 642.75 85.449219 C 645.367188 85.449219 647.847656 86.117188 650.113281 87.421875 C 652.382812 88.730469 653.34375 90.730469 652.96875 93.34375 L 633.679688 158.019531 L 701.207031 154.015625 L 702.355469 154.015625 C 707.265625 154.015625 708.945312 157.621094 707.453125 164.824219 C 706.332031 168.984375 704.730469 172.828125 702.621094 176.429688 C 700.515625 180.03125 698.566406 181.820312 696.699219 181.820312 L 633.121094 180.136719 L 593.417969 352.519531 C 590.777344 364.980469 591.070312 375.386719 594.273438 383.710938 C 597.472656 392.035156 604.972656 396.199219 616.683594 396.199219 C 628.398438 396.199219 639.175781 394.117188 649.019531 389.925781 C 654.332031 388.058594 657.53125 387.097656 658.679688 387.097656 C 661.292969 387.097656 663.1875 388.140625 664.308594 390.222656 C 665.429688 392.300781 666.417969 395.050781 667.164062 398.464844 C 667.164062 399.210938 666.976562 400.171875 666.628906 401.292969 C 666.628906 402.8125 665.109375 404.523438 662.09375 406.417969 C 649.582031 413.59375 638.242188 418.394531 628.050781 420.824219 C 617.859375 423.25 606.117188 424.53125 592.859375 424.53125 Z M 592.804688 424.480469 " clip-rule="nonzero"/></clipPath><clipPath id="da599631c4"><path d="M 0 0.441406 L 168 0.441406 L 168 339.558594 L 0 339.558594 Z M 0 0.441406 " clip-rule="nonzero"/></clipPath><clipPath id="e0769f63cc"><path d="M 52.804688 339.480469 C 34.261719 339.480469 19.988281 332.675781 9.957031 319.09375 C -0.0507812 305.488281 -2.210938 286.011719 3.472656 260.691406 L 42.050781 93.992188 L 8.59375 95.136719 C 6.328125 95.136719 4.699219 94.097656 3.765625 92.015625 C 2.832031 89.933594 2.753906 87.558594 3.527344 84.917969 C 4.273438 81.53125 5.605469 78.597656 7.472656 76.140625 C 9.34375 73.6875 11.609375 72.273438 14.277344 71.898438 C 28.257812 69.230469 39.597656 64.988281 48.296875 59.117188 C 56.992188 53.25 63.824219 46.847656 68.734375 39.882812 C 73.640625 32.917969 80.285156 22.191406 88.609375 7.8125 C 91.597656 2.902344 96.320312 0.449219 102.75 0.449219 C 105.367188 0.449219 107.847656 1.117188 110.113281 2.421875 C 112.382812 3.730469 113.34375 5.730469 112.96875 8.34375 L 93.679688 73.019531 L 161.207031 69.015625 L 162.355469 69.015625 C 167.265625 69.015625 168.945312 72.621094 167.453125 79.824219 C 166.332031 83.984375 164.730469 87.828125 162.621094 91.429688 C 160.515625 95.03125 158.566406 96.820312 156.699219 96.820312 L 93.121094 95.136719 L 53.417969 267.519531 C 50.777344 279.980469 51.070312 290.386719 54.273438 298.710938 C 57.472656 307.035156 64.972656 311.199219 76.683594 311.199219 C 88.398438 311.199219 99.175781 309.117188 109.019531 304.925781 C 114.332031 303.058594 117.53125 302.097656 118.679688 302.097656 C 121.292969 302.097656 123.1875 303.140625 124.308594 305.222656 C 125.429688 307.300781 126.417969 310.050781 127.164062 313.464844 C 127.164062 314.210938 126.976562 315.171875 126.628906 316.292969 C 126.628906 317.8125 125.109375 319.523438 122.09375 321.417969 C 109.582031 328.59375 98.242188 333.394531 88.050781 335.824219 C 77.859375 338.25 66.117188 339.53125 52.859375 339.53125 Z M 52.804688 339.480469 " clip-rule="nonzero"/></clipPath><clipPath id="8748df0eaf"><rect x="0" width="168" y="0" height="340"/></clipPath><clipPath id="b58732a7c6"><path d="M 615 208 L 851 208 L 851 479 L 615 479 Z M 615 208 " clip-rule="nonzero"/></clipPath><clipPath id="2931199791"><path d="M 705.261719 478.613281 C 675.007812 478.613281 651.660156 473.332031 635.226562 462.738281 C 618.792969 452.148438 612.816406 437.234375 617.351562 417.941406 C 619.617188 407.003906 624.929688 398.117188 633.253906 391.289062 C 641.578125 384.457031 651.023438 381.070312 661.585938 381.070312 C 667.644531 381.070312 672.554688 382.777344 676.339844 386.191406 C 680.128906 389.609375 681.835938 392.222656 681.464844 394.089844 C 681.464844 394.488281 678.824219 396.945312 673.511719 401.480469 C 668.203125 406.015625 664.441406 412.445312 662.175781 420.769531 C 659.90625 432.082031 663.109375 441.074219 671.804688 447.71875 C 680.503906 454.363281 694.699219 457.644531 714.363281 457.644531 C 732.128906 457.644531 746.964844 453.773438 758.890625 446.011719 C 770.816406 438.246094 778.261719 427.386719 781.304688 413.40625 C 783.570312 403.960938 782.636719 396.222656 778.476562 390.167969 C 774.3125 384.109375 768.363281 379.390625 760.597656 376 C 752.835938 372.613281 741.949219 368.609375 727.96875 364.074219 C 710.574219 358.792969 696.566406 353.507812 685.972656 348.226562 C 675.382812 342.941406 667.191406 334.992188 661.347656 324.398438 C 655.503906 313.808594 654.625 300.015625 658.785156 283.019531 C 662.175781 267.144531 670.097656 253.535156 682.585938 242.222656 C 695.070312 230.910156 709.824219 222.375 726.847656 216.71875 C 743.871094 211.0625 761.078125 208.179688 778.476562 208.179688 C 800.78125 208.179688 819.136719 212.902344 833.515625 222.347656 C 847.898438 231.792969 852.992188 245.023438 848.832031 262.046875 C 846.5625 272.238281 841.441406 280.9375 833.488281 288.140625 C 825.539062 295.34375 816.496094 298.894531 806.277344 298.894531 C 800.21875 298.894531 795.203125 297.210938 791.226562 293.796875 C 787.253906 290.382812 785.492188 287.714844 785.839844 285.820312 C 786.238281 285.472656 788.214844 283.953125 791.816406 281.3125 C 795.417969 278.667969 798.804688 275.519531 802.035156 271.945312 C 805.261719 268.371094 807.421875 264.101562 808.542969 259.164062 C 810.4375 248.972656 807.238281 241.050781 798.914062 235.394531 C 790.585938 229.738281 779.96875 226.855469 767.109375 226.855469 C 752.726562 226.855469 739.386719 230.164062 727.089844 236.78125 C 714.789062 243.398438 707.34375 252.574219 704.730469 264.316406 C 702.460938 274.878906 702.835938 283.285156 705.878906 289.527344 C 708.917969 295.773438 714.546875 300.789062 722.871094 304.578125 C 731.195312 308.363281 744.429688 313.433594 762.601562 319.863281 C 781.117188 326.292969 795.390625 332.246094 805.394531 337.714844 C 815.402344 343.183594 822.710938 350.601562 827.246094 359.859375 C 831.78125 369.117188 832.15625 381.28125 828.394531 396.382812 C 825.003906 411.914062 817.242188 426 805.15625 438.648438 C 793.070312 451.292969 778.289062 461.136719 760.890625 468.15625 C 743.496094 475.171875 724.980469 478.613281 705.316406 478.613281 Z M 705.261719 478.613281 " clip-rule="nonzero"/></clipPath><clipPath id="fcbbe1701f"><path d="M 0 0.078125 L 236 0.078125 L 236 270.800781 L 0 270.800781 Z M 0 0.078125 " clip-rule="nonzero"/></clipPath><clipPath id="0954049c38"><path d="M 90.261719 270.613281 C 60.007812 270.613281 36.660156 265.332031 20.226562 254.738281 C 3.792969 244.148438 -2.183594 229.234375 2.351562 209.941406 C 4.617188 199.003906 9.929688 190.117188 18.253906 183.289062 C 26.578125 176.457031 36.023438 173.070312 46.585938 173.070312 C 52.644531 173.070312 57.554688 174.777344 61.339844 178.191406 C 65.128906 181.609375 66.835938 184.222656 66.464844 186.089844 C 66.464844 186.488281 63.824219 188.945312 58.511719 193.480469 C 53.203125 198.015625 49.441406 204.445312 47.175781 212.769531 C 44.90625 224.082031 48.109375 233.074219 56.804688 239.71875 C 65.503906 246.363281 79.699219 249.644531 99.363281 249.644531 C 117.128906 249.644531 131.964844 245.773438 143.890625 238.011719 C 155.816406 230.246094 163.261719 219.386719 166.304688 205.40625 C 168.570312 195.960938 167.636719 188.222656 163.476562 182.167969 C 159.3125 176.109375 153.363281 171.390625 145.597656 168 C 137.835938 164.613281 126.949219 160.609375 112.96875 156.074219 C 95.574219 150.792969 81.566406 145.507812 70.972656 140.226562 C 60.382812 134.941406 52.191406 126.992188 46.347656 116.398438 C 40.503906 105.808594 39.625 92.015625 43.785156 75.019531 C 47.175781 59.144531 55.097656 45.535156 67.585938 34.222656 C 80.070312 22.910156 94.824219 14.375 111.847656 8.71875 C 128.871094 3.0625 146.078125 0.179688 163.476562 0.179688 C 185.78125 0.179688 204.136719 4.902344 218.515625 14.347656 C 232.898438 23.792969 237.992188 37.023438 233.832031 54.046875 C 231.5625 64.238281 226.441406 72.9375 218.488281 80.140625 C 210.539062 87.34375 201.496094 90.894531 191.277344 90.894531 C 185.21875 90.894531 180.203125 89.210938 176.226562 85.796875 C 172.253906 82.382812 170.492188 79.714844 170.839844 77.820312 C 171.238281 77.472656 173.214844 75.953125 176.816406 73.3125 C 180.417969 70.667969 183.804688 67.519531 187.035156 63.945312 C 190.261719 60.371094 192.421875 56.101562 193.542969 51.164062 C 195.4375 40.972656 192.238281 33.050781 183.914062 27.394531 C 175.585938 21.738281 164.96875 18.855469 152.109375 18.855469 C 137.726562 18.855469 124.386719 22.164062 112.089844 28.78125 C 99.789062 35.398438 92.34375 44.574219 89.730469 56.316406 C 87.460938 66.878906 87.835938 75.285156 90.878906 81.527344 C 93.917969 87.773438 99.546875 92.789062 107.871094 96.578125 C 116.195312 100.363281 129.429688 105.433594 147.601562 111.863281 C 166.117188 118.292969 180.390625 124.246094 190.394531 129.714844 C 200.402344 135.183594 207.710938 142.601562 212.246094 151.859375 C 216.78125 161.117188 217.15625 173.28125 213.394531 188.382812 C 210.003906 203.914062 202.242188 218 190.15625 230.648438 C 178.070312 243.292969 163.289062 253.136719 145.890625 260.15625 C 128.496094 267.171875 109.980469 270.613281 90.316406 270.613281 Z M 90.261719 270.613281 " clip-rule="nonzero"/></clipPath><clipPath id="376c9898a6"><rect x="0" width="236" y="0" height="271"/></clipPath><clipPath id="aa05aef7a5"><path d="M 612 460 L 900 460 L 900 715.726562 L 612 715.726562 Z M 612 460 " clip-rule="nonzero"/></clipPath><clipPath id="4b8ceaecb6"><path d="M 693.578125 712.257812 C 668.578125 706.148438 649.152344 695.101562 635.359375 679.09375 C 621.566406 663.085938 613.9375 644.515625 612.496094 623.328125 C 611.054688 602.144531 615.375 581.148438 625.515625 560.285156 C 638.828125 534.351562 656.679688 513.324219 679.117188 497.210938 C 701.554688 481.09375 725.300781 470.316406 750.328125 464.925781 C 775.351562 459.539062 798.003906 459.296875 818.230469 464.207031 C 843.230469 470.289062 862.625 481.335938 876.445312 497.371094 C 890.265625 513.40625 897.898438 531.976562 899.3125 553.132812 C 900.726562 574.289062 896.429688 595.316406 886.292969 616.179688 C 872.976562 642.140625 855.019531 663.136719 832.394531 679.226562 C 809.769531 695.339844 785.945312 706.066406 760.890625 711.402344 C 735.839844 716.738281 713.425781 717.058594 693.578125 712.257812 Z M 702.941406 692.964844 C 727.914062 699.050781 751.261719 693.445312 772.980469 676.15625 C 794.695312 658.867188 813.746094 634.324219 830.074219 602.492188 C 844.75 572.636719 850.9375 546.808594 848.644531 525.039062 C 846.351562 503.265625 833.0625 489.445312 808.835938 483.523438 C 783.464844 477.359375 760.039062 482.777344 738.585938 499.746094 C 717.136719 516.714844 698.460938 541.125 682.558594 573.035156 C 667.484375 602.8125 660.945312 628.773438 662.976562 650.863281 C 665.003906 672.957031 678.34375 686.964844 702.96875 692.964844 Z M 702.941406 692.964844 " clip-rule="nonzero"/></clipPath><clipPath id="6f9d4cdd12"><path d="M 0 0 L 288 0 L 288 255.726562 L 0 255.726562 Z M 0 0 " clip-rule="nonzero"/></clipPath><clipPath id="d4a768ba8a"><path d="M 81.578125 252.257812 C 56.578125 246.148438 37.152344 235.101562 23.359375 219.09375 C 9.566406 203.085938 1.9375 184.515625 0.496094 163.328125 C -0.945312 142.144531 3.375 121.148438 13.515625 100.285156 C 26.828125 74.351562 44.679688 53.324219 67.117188 37.210938 C 89.554688 21.09375 113.300781 10.316406 138.328125 4.925781 C 163.351562 -0.460938 186.003906 -0.703125 206.230469 4.207031 C 231.230469 10.289062 250.625 21.335938 264.445312 37.371094 C 278.265625 53.40625 285.898438 71.976562 287.3125 93.132812 C 288.726562 114.289062 284.429688 135.316406 274.292969 156.179688 C 260.976562 182.140625 243.019531 203.136719 220.394531 219.226562 C 197.769531 235.339844 173.945312 246.066406 148.890625 251.402344 C 123.839844 256.738281 101.425781 257.058594 81.578125 252.257812 Z M 90.941406 232.964844 C 115.914062 239.050781 139.261719 233.445312 160.980469 216.15625 C 182.695312 198.867188 201.746094 174.324219 218.074219 142.492188 C 232.75 112.636719 238.9375 86.808594 236.644531 65.039062 C 234.351562 43.265625 221.0625 29.445312 196.835938 23.523438 C 171.464844 17.359375 148.039062 22.777344 126.585938 39.746094 C 105.136719 56.714844 86.460938 81.125 70.558594 113.035156 C 55.484375 142.8125 48.945312 168.773438 50.976562 190.863281 C 53.003906 212.957031 66.34375 226.964844 90.96875 232.964844 Z M 90.941406 232.964844 " clip-rule="nonzero"/></clipPath><clipPath id="f4808b5f69"><rect x="0" width="288" y="0" height="256"/></clipPath></defs><g clip-path="url(#33dc57dbe3)"><g clip-path="url(#40d8b3f506)"><g transform="matrix(1, 0, 0, 1, 540, 85)"><g clip-path="url(#8748df0eaf)"><g clip-path="url(#da599631c4)"><g clip-path="url(#e0769f63cc)"><rect x="-856.8" width="2073.6" fill="#fab6c4" height="1166.39999" y="-263.199998" fill-opacity="1"/></g></g></g></g></g></g><g clip-path="url(#b58732a7c6)"><g clip-path="url(#2931199791)"><g transform="matrix(1, 0, 0, 1, 615, 208)"><g clip-path="url(#376c9898a6)"><g clip-path="url(#fcbbe1701f)"><g clip-path="url(#0954049c38)"><rect x="-931.8" width="2073.6" fill="#fab6c4" height="1166.39999" y="-386.199998" fill-opacity="1"/></g></g></g></g></g></g><g clip-path="url(#aa05aef7a5)"><g clip-path="url(#4b8ceaecb6)"><g transform="matrix(1, 0, 0, 1, 612, 460)"><g clip-path="url(#f4808b5f69)"><g clip-path="url(#6f9d4cdd12)"><g clip-path="url(#d4a768ba8a)"><rect x="-928.8" width="2073.6" fill="#fab6c4" height="1166.39999" y="-638.199998" fill-opacity="1"/></g></g></g></g></g></g></svg>