<svg xmlns="http://www.w3.org/2000/svg" xmlns:xlink="http://www.w3.org/1999/xlink" width="1920" zoomAndPan="magnify" viewBox="0 0 1440 809.999993" height="1080" preserveAspectRatio="xMidYMid meet" version="1.0"><defs><g/></defs><g fill="#fab6c4" fill-opacity="1"><g transform="translate(547.650627, 265.626218)"><g><path d="M 31.3125 0.53125 C 30.257812 0.53125 29.46875 0.148438 28.9375 -0.609375 C 28.414062 -1.367188 28.15625 -2.273438 28.15625 -3.328125 C 28.269531 -5.078125 28.617188 -6.125 29.203125 -6.46875 C 29.785156 -6.820312 30.894531 -7 32.53125 -7 C 35.90625 -7 38.410156 -7.609375 40.046875 -8.828125 C 41.679688 -10.054688 42.703125 -11.570312 43.109375 -13.375 C 43.515625 -15.1875 43.773438 -17.550781 43.890625 -20.46875 L 43.890625 -103.890625 L 31.828125 -103.890625 C 27.867188 -103.765625 24.804688 -102.914062 22.640625 -101.34375 C 20.484375 -99.769531 18.851562 -97.4375 17.75 -94.34375 C 16.644531 -91.257812 15.679688 -86.863281 14.859375 -81.15625 C 14.742188 -80.21875 14.046875 -79.457031 12.765625 -78.875 C 11.484375 -78.289062 10.144531 -78 8.75 -78 C 7.695312 -78 6.734375 -78.316406 5.859375 -78.953125 C 4.984375 -79.597656 4.546875 -80.445312 4.546875 -81.5 L 5.078125 -106.15625 C 5.078125 -108.957031 6.648438 -110.359375 9.796875 -110.359375 L 95.3125 -110.359375 C 98.34375 -110.359375 99.859375 -108.957031 99.859375 -106.15625 L 100.5625 -81.5 C 100.5625 -80.445312 100.09375 -79.597656 99.15625 -78.953125 C 98.226562 -78.316406 97.238281 -78 96.1875 -78 C 94.789062 -78 93.476562 -78.289062 92.25 -78.875 C 91.03125 -79.457031 90.363281 -80.21875 90.25 -81.15625 C 89.3125 -86.976562 88.316406 -91.40625 87.265625 -94.4375 C 86.222656 -97.46875 84.59375 -99.769531 82.375 -101.34375 C 80.15625 -102.914062 77.066406 -103.765625 73.109375 -103.890625 L 61.21875 -103.890625 L 61.21875 -20.46875 C 61.332031 -17.550781 61.59375 -15.1875 62 -13.375 C 62.40625 -11.570312 63.421875 -10.054688 65.046875 -8.828125 C 66.679688 -7.609375 69.191406 -7 72.578125 -7 L 73.625 -7 C 74.675781 -7 75.460938 -6.789062 75.984375 -6.375 C 76.515625 -5.96875 76.835938 -4.953125 76.953125 -3.328125 C 76.953125 -2.273438 76.6875 -1.367188 76.15625 -0.609375 C 75.632812 0.148438 74.847656 0.53125 73.796875 0.53125 C 66.335938 0.175781 59.460938 0 53.171875 0 C 46.171875 0 38.882812 0.175781 31.3125 0.53125 Z M 31.3125 0.53125 "/></g></g></g><g fill="#fab6c4" fill-opacity="1"><g transform="translate(652.577997, 265.626218)"><g><path d="M 10.671875 0.53125 C 9.617188 0.53125 8.828125 0.148438 8.296875 -0.609375 C 7.773438 -1.367188 7.515625 -2.273438 7.515625 -3.328125 C 7.628906 -5.078125 7.976562 -6.125 8.5625 -6.46875 C 9.144531 -6.820312 10.253906 -7 11.890625 -7 C 15.273438 -7 17.78125 -7.609375 19.40625 -8.828125 C 21.039062 -10.054688 22.0625 -11.570312 22.46875 -13.375 C 22.875 -15.1875 23.140625 -17.550781 23.265625 -20.46875 L 23.265625 -89.890625 C 23.140625 -92.804688 22.875 -95.164062 22.46875 -96.96875 C 22.0625 -98.78125 21.039062 -100.296875 19.40625 -101.515625 C 17.78125 -102.742188 15.273438 -103.359375 11.890625 -103.359375 L 10.84375 -103.359375 C 9.675781 -103.359375 8.859375 -103.5625 8.390625 -103.96875 C 7.921875 -104.375 7.628906 -105.394531 7.515625 -107.03125 C 7.515625 -108.082031 7.773438 -108.984375 8.296875 -109.734375 C 8.828125 -110.492188 9.617188 -110.875 10.671875 -110.875 C 18.242188 -110.53125 25.125 -110.359375 31.3125 -110.359375 C 38.300781 -110.359375 45.585938 -110.53125 53.171875 -110.875 C 54.210938 -110.875 54.992188 -110.492188 55.515625 -109.734375 C 56.046875 -108.984375 56.3125 -108.082031 56.3125 -107.03125 C 56.195312 -105.28125 55.847656 -104.226562 55.265625 -103.875 C 54.679688 -103.53125 53.570312 -103.359375 51.9375 -103.359375 C 48.5625 -103.359375 46.054688 -102.742188 44.421875 -101.515625 C 42.785156 -100.296875 41.765625 -98.78125 41.359375 -96.96875 C 40.953125 -95.164062 40.691406 -92.804688 40.578125 -89.890625 L 40.578125 -58.9375 L 95.484375 -58.9375 L 95.484375 -89.890625 C 95.367188 -92.804688 95.109375 -95.164062 94.703125 -96.96875 C 94.296875 -98.78125 93.273438 -100.296875 91.640625 -101.515625 C 90.003906 -102.742188 87.5 -103.359375 84.125 -103.359375 L 83.078125 -103.359375 C 81.910156 -103.359375 81.0625 -103.5625 80.53125 -103.96875 C 80.007812 -104.375 79.691406 -105.394531 79.578125 -107.03125 C 79.578125 -108.082031 79.867188 -108.984375 80.453125 -109.734375 C 81.035156 -110.492188 81.789062 -110.875 82.71875 -110.875 C 90.300781 -110.53125 97.585938 -110.359375 104.578125 -110.359375 C 110.992188 -110.359375 117.929688 -110.53125 125.390625 -110.875 C 126.441406 -110.875 127.226562 -110.492188 127.75 -109.734375 C 128.28125 -108.984375 128.546875 -108.082031 128.546875 -107.03125 C 128.429688 -105.28125 128.050781 -104.226562 127.40625 -103.875 C 126.769531 -103.53125 125.691406 -103.359375 124.171875 -103.359375 C 120.785156 -103.359375 118.25 -102.742188 116.5625 -101.515625 C 114.875 -100.296875 113.820312 -98.78125 113.40625 -96.96875 C 113 -95.164062 112.738281 -92.804688 112.625 -89.890625 L 112.625 -20.46875 C 112.738281 -17.550781 113 -15.1875 113.40625 -13.375 C 113.820312 -11.570312 114.875 -10.054688 116.5625 -8.828125 C 118.25 -7.609375 120.785156 -7 124.171875 -7 L 125.21875 -7 C 126.269531 -7 127.054688 -6.789062 127.578125 -6.375 C 128.109375 -5.96875 128.429688 -4.953125 128.546875 -3.328125 C 128.546875 -2.273438 128.28125 -1.367188 127.75 -0.609375 C 127.226562 0.148438 126.441406 0.53125 125.390625 0.53125 C 117.929688 0.175781 110.9375 0 104.40625 0 C 97.53125 0 90.300781 0.175781 82.71875 0.53125 C 81.789062 0.53125 81.035156 0.148438 80.453125 -0.609375 C 79.867188 -1.367188 79.578125 -2.273438 79.578125 -3.328125 C 79.691406 -5.078125 80.066406 -6.125 80.703125 -6.46875 C 81.347656 -6.820312 82.488281 -7 84.125 -7 C 87.5 -7 90.003906 -7.609375 91.640625 -8.828125 C 93.273438 -10.054688 94.296875 -11.570312 94.703125 -13.375 C 95.109375 -15.1875 95.367188 -17.550781 95.484375 -20.46875 L 95.484375 -51.421875 L 40.578125 -51.421875 L 40.578125 -20.46875 C 40.691406 -17.550781 40.953125 -15.1875 41.359375 -13.375 C 41.765625 -11.570312 42.785156 -10.054688 44.421875 -8.828125 C 46.054688 -7.609375 48.5625 -7 51.9375 -7 L 52.984375 -7 C 54.148438 -7 54.96875 -6.789062 55.4375 -6.375 C 55.90625 -5.96875 56.195312 -4.953125 56.3125 -3.328125 C 56.3125 -2.273438 56.046875 -1.367188 55.515625 -0.609375 C 54.992188 0.148438 54.210938 0.53125 53.171875 0.53125 C 45.703125 0.175781 38.472656 0 31.484375 0 C 25.179688 0 18.242188 0.175781 10.671875 0.53125 Z M 10.671875 0.53125 "/></g></g></g><g fill="#fab6c4" fill-opacity="1"><g transform="translate(788.458933, 265.626218)"><g><path d="M 10.5 0.53125 C 9.5625 0.53125 8.828125 0.148438 8.296875 -0.609375 C 7.773438 -1.367188 7.515625 -2.273438 7.515625 -3.328125 C 7.628906 -5.078125 7.976562 -6.125 8.5625 -6.46875 C 9.144531 -6.820312 10.253906 -7 11.890625 -7 C 15.273438 -7 17.78125 -7.609375 19.40625 -8.828125 C 21.039062 -10.054688 22.0625 -11.570312 22.46875 -13.375 C 22.875 -15.1875 23.140625 -17.550781 23.265625 -20.46875 L 23.265625 -89.890625 C 23.140625 -92.804688 22.875 -95.164062 22.46875 -96.96875 C 22.0625 -98.78125 21.039062 -100.296875 19.40625 -101.515625 C 17.78125 -102.742188 15.273438 -103.359375 11.890625 -103.359375 L 10.84375 -103.359375 C 9.675781 -103.359375 8.859375 -103.5625 8.390625 -103.96875 C 7.921875 -104.375 7.628906 -105.394531 7.515625 -107.03125 C 7.515625 -108.082031 7.773438 -108.984375 8.296875 -109.734375 C 8.828125 -110.492188 9.5625 -110.875 10.5 -110.875 C 18.1875 -110.53125 25.125 -110.359375 31.3125 -110.359375 L 86.21875 -110.359375 C 89.25 -110.359375 90.765625 -108.957031 90.765625 -106.15625 L 91.296875 -81.671875 C 91.296875 -80.617188 90.769531 -79.769531 89.71875 -79.125 C 88.664062 -78.488281 87.617188 -78.171875 86.578125 -78.171875 C 85.171875 -78.171875 83.941406 -78.429688 82.890625 -78.953125 C 81.847656 -79.484375 81.269531 -80.273438 81.15625 -81.328125 C 80.21875 -87.035156 79.191406 -91.375 78.078125 -94.34375 C 76.972656 -97.320312 75.34375 -99.539062 73.1875 -101 C 71.03125 -102.457031 67.972656 -103.242188 64.015625 -103.359375 L 40.578125 -103.359375 L 40.578125 -58.9375 L 72.234375 -58.9375 C 73.046875 -58.820312 73.6875 -58.382812 74.15625 -57.625 C 74.625 -56.863281 74.859375 -55.960938 74.859375 -54.921875 C 74.859375 -53.984375 74.625 -53.164062 74.15625 -52.46875 C 73.6875 -51.769531 73.046875 -51.421875 72.234375 -51.421875 L 40.578125 -51.421875 L 40.578125 -18.359375 C 40.804688 -15.910156 41.09375 -13.957031 41.4375 -12.5 C 41.789062 -11.039062 42.84375 -9.726562 44.59375 -8.5625 C 46.34375 -7.40625 49.082031 -6.882812 52.8125 -7 L 68.90625 -7 C 72.988281 -7.113281 76.078125 -7.78125 78.171875 -9 C 80.273438 -10.226562 81.9375 -12.125 83.15625 -14.6875 C 84.382812 -17.25 85.875 -21.445312 87.625 -27.28125 C 88.4375 -29.382812 90.414062 -30.203125 93.5625 -29.734375 C 94.726562 -29.492188 95.75 -29.023438 96.625 -28.328125 C 97.5 -27.628906 97.878906 -26.753906 97.765625 -25.703125 L 94.265625 -3.671875 C 93.910156 -2.160156 93.382812 -1.171875 92.6875 -0.703125 C 91.988281 -0.234375 90.820312 0 89.1875 0 L 31.484375 0 C 25.179688 0 18.1875 0.175781 10.5 0.53125 Z M 10.5 0.53125 "/></g></g></g><g fill="#fab6c4" fill-opacity="1"><g transform="translate(413.342036, 411.126211)"><g><path d="M 46.34375 3.5 C 34.101562 3.5 24.742188 1.375 18.265625 -2.875 C 11.796875 -7.132812 8.5625 -13.40625 8.5625 -21.6875 C 8.5625 -25.882812 9.988281 -29.351562 12.84375 -32.09375 C 15.707031 -34.832031 19.410156 -36.203125 23.953125 -36.203125 C 26.640625 -36.085938 28.679688 -35.414062 30.078125 -34.1875 C 31.484375 -32.96875 32.1875 -31.832031 32.1875 -30.78125 C 32.1875 -30.664062 31.601562 -30.253906 30.4375 -29.546875 C 29.269531 -28.847656 28.21875 -27.800781 27.28125 -26.40625 C 26.351562 -25.007812 25.890625 -23.085938 25.890625 -20.640625 C 25.890625 -15.160156 27.550781 -10.929688 30.875 -7.953125 C 34.195312 -4.984375 39.351562 -3.5 46.34375 -3.5 C 51.125 -3.5 55.320312 -4.429688 58.9375 -6.296875 C 62.550781 -8.160156 65.316406 -10.632812 67.234375 -13.71875 C 69.160156 -16.8125 70.125 -20.050781 70.125 -23.4375 C 70.125 -27.632812 68.925781 -31.25 66.53125 -34.28125 C 64.144531 -37.3125 61.203125 -39.847656 57.703125 -41.890625 C 54.210938 -43.929688 49.4375 -46.289062 43.375 -48.96875 C 36.375 -52.113281 30.71875 -54.96875 26.40625 -57.53125 C 22.09375 -60.101562 18.421875 -63.515625 15.390625 -67.765625 C 12.359375 -72.023438 10.84375 -77.300781 10.84375 -83.59375 C 10.84375 -93.738281 14.3125 -101.316406 21.25 -106.328125 C 28.1875 -111.347656 37.3125 -113.859375 48.625 -113.859375 C 57.476562 -113.859375 65.195312 -111.988281 71.78125 -108.25 C 78.375 -104.519531 81.671875 -99.039062 81.671875 -91.8125 C 81.671875 -87.613281 80.242188 -84.144531 77.390625 -81.40625 C 74.535156 -78.664062 70.832031 -77.296875 66.28125 -77.296875 C 63.601562 -77.410156 61.5625 -78.082031 60.15625 -79.3125 C 58.757812 -80.539062 58.0625 -81.675781 58.0625 -82.71875 C 58.0625 -82.832031 58.847656 -83.238281 60.421875 -83.9375 C 61.992188 -84.644531 63.390625 -85.695312 64.609375 -87.09375 C 65.835938 -88.488281 66.453125 -90.410156 66.453125 -92.859375 C 66.453125 -97.179688 64.789062 -100.566406 61.46875 -103.015625 C 58.144531 -105.460938 53.921875 -106.6875 48.796875 -106.6875 C 41.679688 -106.6875 36.285156 -105.023438 32.609375 -101.703125 C 28.941406 -98.378906 27.109375 -94.269531 27.109375 -89.375 C 27.109375 -85.289062 28.210938 -81.878906 30.421875 -79.140625 C 32.640625 -76.398438 36.195312 -73.6875 41.09375 -71 C 45.0625 -68.90625 49.378906 -66.804688 54.046875 -64.703125 C 61.503906 -61.328125 67.414062 -58.238281 71.78125 -55.4375 C 76.15625 -52.644531 79.828125 -48.972656 82.796875 -44.421875 C 85.773438 -39.867188 87.265625 -34.210938 87.265625 -27.453125 C 87.265625 -21.628906 85.425781 -16.351562 81.75 -11.625 C 78.082031 -6.90625 73.128906 -3.203125 66.890625 -0.515625 C 60.648438 2.160156 53.800781 3.5 46.34375 3.5 Z M 46.34375 3.5 "/></g></g></g><g fill="#fab6c4" fill-opacity="1"><g transform="translate(508.65106, 411.126211)"><g><path d="M 64.015625 3.5 C 52.929688 3.5 43.160156 0.847656 34.703125 -4.453125 C 26.253906 -9.765625 19.726562 -16.789062 15.125 -25.53125 C 10.519531 -34.28125 8.21875 -43.664062 8.21875 -53.6875 C 8.21875 -65.9375 10.984375 -76.609375 16.515625 -85.703125 C 22.054688 -94.796875 29.140625 -101.757812 37.765625 -106.59375 C 46.398438 -111.4375 55.148438 -113.859375 64.015625 -113.859375 C 75.203125 -113.859375 85.082031 -111.203125 93.65625 -105.890625 C 102.226562 -100.585938 108.816406 -93.59375 113.421875 -84.90625 C 118.023438 -76.21875 120.328125 -66.863281 120.328125 -56.84375 C 120.328125 -44.59375 117.523438 -33.890625 111.921875 -24.734375 C 106.328125 -15.585938 99.15625 -8.59375 90.40625 -3.75 C 81.664062 1.082031 72.867188 3.5 64.015625 3.5 Z M 63.828125 -4.203125 C 71.765625 -4.203125 78.382812 -6.5625 83.6875 -11.28125 C 88.988281 -16 92.953125 -22.351562 95.578125 -30.34375 C 98.203125 -38.332031 99.515625 -47.164062 99.515625 -56.84375 C 99.515625 -65.820312 98.171875 -74.066406 95.484375 -81.578125 C 92.804688 -89.097656 88.785156 -95.101562 83.421875 -99.59375 C 78.054688 -104.082031 71.523438 -106.328125 63.828125 -106.328125 C 52.171875 -106.328125 43.398438 -101.398438 37.515625 -91.546875 C 31.628906 -81.703125 28.6875 -69.257812 28.6875 -54.21875 C 28.6875 -45.125 29.992188 -36.785156 32.609375 -29.203125 C 35.234375 -21.628906 39.171875 -15.566406 44.421875 -11.015625 C 49.671875 -6.472656 56.140625 -4.203125 63.828125 -4.203125 Z M 63.828125 -4.203125 "/></g></g></g><g fill="#fab6c4" fill-opacity="1"><g transform="translate(637.187088, 411.126211)"><g><path d="M 62.609375 3.5 C 52.703125 3.5 43.632812 1.140625 35.40625 -3.578125 C 27.1875 -8.304688 20.65625 -15.039062 15.8125 -23.78125 C 10.976562 -32.53125 8.5625 -42.734375 8.5625 -54.390625 C 8.5625 -66.171875 10.894531 -76.546875 15.5625 -85.515625 C 20.226562 -94.492188 26.875 -101.460938 35.5 -106.421875 C 44.125 -111.378906 54.210938 -113.859375 65.765625 -113.859375 C 75.785156 -113.859375 84.703125 -111.84375 92.515625 -107.8125 C 100.328125 -103.789062 104.234375 -97.582031 104.234375 -89.1875 C 104.347656 -83.945312 102.769531 -79.488281 99.5 -75.8125 C 96.238281 -72.144531 91.867188 -70.3125 86.390625 -70.3125 C 84.296875 -70.3125 82.519531 -70.6875 81.0625 -71.4375 C 79.601562 -72.195312 78.523438 -73.101562 77.828125 -74.15625 C 77.128906 -75.207031 76.835938 -76.023438 76.953125 -76.609375 C 76.953125 -76.835938 77.765625 -77.472656 79.390625 -78.515625 C 81.023438 -79.566406 82.484375 -81.023438 83.765625 -82.890625 C 85.054688 -84.765625 85.703125 -87.039062 85.703125 -89.71875 C 85.703125 -94.96875 83.921875 -99.132812 80.359375 -102.21875 C 76.804688 -105.3125 71.878906 -106.859375 65.578125 -106.859375 C 58.472656 -106.859375 52.148438 -104.847656 46.609375 -100.828125 C 41.066406 -96.804688 36.75 -90.914062 33.65625 -83.15625 C 30.570312 -75.40625 29.03125 -66.164062 29.03125 -55.4375 C 29.03125 -46.113281 30.691406 -37.628906 34.015625 -29.984375 C 37.335938 -22.347656 42.03125 -16.285156 48.09375 -11.796875 C 54.15625 -7.316406 61.09375 -5.078125 68.90625 -5.078125 C 75.195312 -5.078125 80.585938 -6.382812 85.078125 -9 C 89.566406 -11.625 93.617188 -15.851562 97.234375 -21.6875 C 97.816406 -22.738281 98.632812 -23.265625 99.6875 -23.265625 C 100.625 -23.265625 101.671875 -22.914062 102.828125 -22.21875 C 104.703125 -20.925781 105.640625 -19.640625 105.640625 -18.359375 C 105.640625 -17.660156 105.40625 -17.078125 104.9375 -16.609375 C 100.5 -11.015625 96.328125 -6.789062 92.421875 -3.9375 C 88.523438 -1.082031 84.300781 0.867188 79.75 1.921875 C 75.195312 2.972656 69.484375 3.5 62.609375 3.5 Z M 62.609375 3.5 "/></g></g></g><g fill="#fab6c4" fill-opacity="1"><g transform="translate(748.934748, 411.126211)"><g><path d="M 10.5 0.53125 C 9.445312 0.53125 8.65625 0.148438 8.125 -0.609375 C 7.601562 -1.367188 7.34375 -2.273438 7.34375 -3.328125 C 7.457031 -5.078125 7.832031 -6.125 8.46875 -6.46875 C 9.113281 -6.820312 10.195312 -7 11.71875 -7 C 15.101562 -7 17.609375 -7.609375 19.234375 -8.828125 C 20.867188 -10.054688 21.914062 -11.546875 22.375 -13.296875 C 22.84375 -15.046875 23.140625 -17.4375 23.265625 -20.46875 L 23.265625 -89.890625 C 23.140625 -92.921875 22.84375 -95.3125 22.375 -97.0625 C 21.914062 -98.8125 20.867188 -100.296875 19.234375 -101.515625 C 17.609375 -102.742188 15.101562 -103.359375 11.71875 -103.359375 L 10.671875 -103.359375 C 9.617188 -103.359375 8.828125 -103.5625 8.296875 -103.96875 C 7.773438 -104.375 7.457031 -105.394531 7.34375 -107.03125 C 7.34375 -108.082031 7.601562 -108.984375 8.125 -109.734375 C 8.65625 -110.492188 9.445312 -110.875 10.5 -110.875 C 18.070312 -110.53125 25.007812 -110.359375 31.3125 -110.359375 C 38.300781 -110.359375 45.585938 -110.53125 53.171875 -110.875 C 54.210938 -110.875 54.992188 -110.492188 55.515625 -109.734375 C 56.046875 -108.984375 56.3125 -108.082031 56.3125 -107.03125 C 56.195312 -105.28125 55.816406 -104.226562 55.171875 -103.875 C 54.535156 -103.53125 53.398438 -103.359375 51.765625 -103.359375 C 48.390625 -103.359375 45.882812 -102.742188 44.25 -101.515625 C 42.613281 -100.296875 41.59375 -98.78125 41.1875 -96.96875 C 40.78125 -95.164062 40.519531 -92.804688 40.40625 -89.890625 L 40.40625 -20.46875 C 40.519531 -17.550781 40.78125 -15.1875 41.1875 -13.375 C 41.59375 -11.570312 42.613281 -10.054688 44.25 -8.828125 C 45.882812 -7.609375 48.390625 -7 51.765625 -7 L 52.8125 -7 C 53.976562 -7 54.820312 -6.789062 55.34375 -6.375 C 55.875 -5.96875 56.195312 -4.953125 56.3125 -3.328125 C 56.3125 -2.273438 56.046875 -1.367188 55.515625 -0.609375 C 54.992188 0.148438 54.210938 0.53125 53.171875 0.53125 C 45.703125 0.175781 38.472656 0 31.484375 0 C 25.066406 0 18.070312 0.175781 10.5 0.53125 Z M 10.5 0.53125 "/></g></g></g><g fill="#fab6c4" fill-opacity="1"><g transform="translate(812.590675, 411.126211)"><g><path d="M 1.046875 0.53125 C -0.00390625 0.53125 -0.789062 0.148438 -1.3125 -0.609375 C -1.832031 -1.367188 -2.09375 -2.273438 -2.09375 -3.328125 C -1.976562 -5.078125 -1.628906 -6.125 -1.046875 -6.46875 C -0.460938 -6.820312 0.234375 -7 1.046875 -7 C 1.867188 -7 2.394531 -7 2.625 -7 C 6.125 -7 8.6875 -7.898438 10.3125 -9.703125 C 11.945312 -11.515625 13.257812 -13.554688 14.25 -15.828125 C 15.238281 -18.097656 15.910156 -19.644531 16.265625 -20.46875 L 46.875 -92.859375 C 47.570312 -94.609375 47.921875 -96.007812 47.921875 -97.0625 C 47.921875 -99.164062 47.101562 -100.679688 45.46875 -101.609375 C 43.832031 -102.546875 41.5625 -103.304688 38.65625 -103.890625 C 36.664062 -104.234375 35.4375 -104.578125 34.96875 -104.921875 C 34.507812 -105.273438 34.28125 -106.269531 34.28125 -107.90625 C 34.28125 -109.300781 34.65625 -110.234375 35.40625 -110.703125 C 36.164062 -111.171875 37.363281 -111.40625 39 -111.40625 C 44.832031 -111.40625 49.46875 -110.96875 52.90625 -110.09375 C 56.34375 -109.21875 59.34375 -107.46875 61.90625 -104.84375 C 64.476562 -102.21875 66.867188 -98.222656 69.078125 -92.859375 L 98.46875 -20.46875 C 100.21875 -16.03125 101.90625 -12.703125 103.53125 -10.484375 C 105.164062 -8.273438 107.613281 -7.113281 110.875 -7 L 111.9375 -7 C 113.09375 -7 113.90625 -6.789062 114.375 -6.375 C 114.84375 -5.96875 115.132812 -4.953125 115.25 -3.328125 C 115.25 -2.273438 114.984375 -1.367188 114.453125 -0.609375 C 113.929688 0.148438 113.148438 0.53125 112.109375 0.53125 C 104.640625 0.175781 98.222656 0 92.859375 0 C 85.867188 0 78.644531 0.175781 71.1875 0.53125 C 70.132812 0.53125 69.34375 0.148438 68.8125 -0.609375 C 68.289062 -1.367188 68.03125 -2.273438 68.03125 -3.328125 C 68.144531 -4.953125 68.4375 -5.96875 68.90625 -6.375 C 69.375 -6.789062 70.191406 -7 71.359375 -7 C 75.316406 -7 78.113281 -7.375 79.75 -8.125 C 81.382812 -8.882812 82.203125 -10.257812 82.203125 -12.25 C 82.203125 -13.757812 81.5 -16.5 80.09375 -20.46875 L 74.15625 -34.984375 L 30.953125 -34.984375 C 28.035156 -27.753906 26.375 -23.554688 25.96875 -22.390625 C 25.5625 -21.222656 25.359375 -20.582031 25.359375 -20.46875 C 23.960938 -16.03125 23.265625 -13.171875 23.265625 -11.890625 C 23.265625 -9.910156 24.132812 -8.597656 25.875 -7.953125 C 27.625 -7.316406 30.953125 -7 35.859375 -7 L 36.90625 -7 C 38.070312 -7 38.882812 -6.789062 39.34375 -6.375 C 39.8125 -5.96875 40.101562 -4.953125 40.21875 -3.328125 C 40.21875 -2.273438 39.957031 -1.367188 39.4375 -0.609375 C 38.914062 0.148438 38.128906 0.53125 37.078125 0.53125 C 29.617188 0.175781 23.265625 0 18.015625 0 C 14.285156 0 8.628906 0.175781 1.046875 0.53125 Z M 34.28125 -42.5 L 71 -42.5 L 53.34375 -87.4375 L 52.8125 -87.4375 Z M 34.28125 -42.5 "/></g></g></g><g fill="#fab6c4" fill-opacity="1"><g transform="translate(926.786638, 411.126211)"><g><path d="M 10.5 0.53125 C 9.5625 0.53125 8.828125 0.148438 8.296875 -0.609375 C 7.773438 -1.367188 7.515625 -2.273438 7.515625 -3.328125 C 7.628906 -5.078125 7.976562 -6.125 8.5625 -6.46875 C 9.144531 -6.820312 10.253906 -7 11.890625 -7 C 15.273438 -7 17.78125 -7.609375 19.40625 -8.828125 C 21.039062 -10.054688 22.0625 -11.570312 22.46875 -13.375 C 22.875 -15.1875 23.140625 -17.550781 23.265625 -20.46875 L 23.265625 -89.890625 C 23.140625 -92.804688 22.875 -95.164062 22.46875 -96.96875 C 22.0625 -98.78125 21.039062 -100.296875 19.40625 -101.515625 C 17.78125 -102.742188 15.273438 -103.359375 11.890625 -103.359375 L 10.84375 -103.359375 C 9.675781 -103.359375 8.859375 -103.5625 8.390625 -103.96875 C 7.921875 -104.375 7.628906 -105.394531 7.515625 -107.03125 C 7.515625 -108.082031 7.773438 -108.984375 8.296875 -109.734375 C 8.828125 -110.492188 9.5625 -110.875 10.5 -110.875 C 18.1875 -110.53125 25.125 -110.359375 31.3125 -110.359375 C 38.300781 -110.359375 45.585938 -110.53125 53.171875 -110.875 C 54.210938 -110.875 54.992188 -110.492188 55.515625 -109.734375 C 56.046875 -108.984375 56.3125 -108.082031 56.3125 -107.03125 C 56.195312 -105.28125 55.816406 -104.226562 55.171875 -103.875 C 54.535156 -103.53125 53.457031 -103.359375 51.9375 -103.359375 C 48.5625 -103.359375 46.054688 -102.742188 44.421875 -101.515625 C 42.785156 -100.296875 41.765625 -98.78125 41.359375 -96.96875 C 40.953125 -95.164062 40.691406 -92.804688 40.578125 -89.890625 L 40.578125 -17.84375 C 40.804688 -15.394531 41.09375 -13.5 41.4375 -12.15625 C 41.789062 -10.8125 42.84375 -9.585938 44.59375 -8.484375 C 46.34375 -7.378906 49.082031 -6.882812 52.8125 -7 L 68.5625 -7 C 72.632812 -7.113281 75.71875 -7.78125 77.8125 -9 C 79.914062 -10.226562 81.578125 -12.125 82.796875 -14.6875 C 84.023438 -17.25 85.515625 -21.445312 87.265625 -27.28125 C 88.085938 -29.382812 90.070312 -30.203125 93.21875 -29.734375 C 94.269531 -29.492188 95.257812 -29.023438 96.1875 -28.328125 C 97.125 -27.628906 97.53125 -26.753906 97.40625 -25.703125 L 93.921875 -3.671875 C 93.566406 -2.160156 93.039062 -1.171875 92.34375 -0.703125 C 91.644531 -0.234375 90.476562 0 88.84375 0 L 31.484375 0 C 25.179688 0 18.1875 0.175781 10.5 0.53125 Z M 10.5 0.53125 "/></g></g></g><g fill="#fab6c4" fill-opacity="1"><g transform="translate(310.802979, 556.626203)"><g><path d="M 64.015625 3.5 C 52.929688 3.5 43.160156 0.847656 34.703125 -4.453125 C 26.253906 -9.765625 19.726562 -16.789062 15.125 -25.53125 C 10.519531 -34.28125 8.21875 -43.664062 8.21875 -53.6875 C 8.21875 -65.9375 10.984375 -76.609375 16.515625 -85.703125 C 22.054688 -94.796875 29.140625 -101.757812 37.765625 -106.59375 C 46.398438 -111.4375 55.148438 -113.859375 64.015625 -113.859375 C 75.203125 -113.859375 85.082031 -111.203125 93.65625 -105.890625 C 102.226562 -100.585938 108.816406 -93.59375 113.421875 -84.90625 C 118.023438 -76.21875 120.328125 -66.863281 120.328125 -56.84375 C 120.328125 -44.59375 117.523438 -33.890625 111.921875 -24.734375 C 106.328125 -15.585938 99.15625 -8.59375 90.40625 -3.75 C 81.664062 1.082031 72.867188 3.5 64.015625 3.5 Z M 63.828125 -4.203125 C 71.765625 -4.203125 78.382812 -6.5625 83.6875 -11.28125 C 88.988281 -16 92.953125 -22.351562 95.578125 -30.34375 C 98.203125 -38.332031 99.515625 -47.164062 99.515625 -56.84375 C 99.515625 -65.820312 98.171875 -74.066406 95.484375 -81.578125 C 92.804688 -89.097656 88.785156 -95.101562 83.421875 -99.59375 C 78.054688 -104.082031 71.523438 -106.328125 63.828125 -106.328125 C 52.171875 -106.328125 43.398438 -101.398438 37.515625 -91.546875 C 31.628906 -81.703125 28.6875 -69.257812 28.6875 -54.21875 C 28.6875 -45.125 29.992188 -36.785156 32.609375 -29.203125 C 35.234375 -21.628906 39.171875 -15.566406 44.421875 -11.015625 C 49.671875 -6.472656 56.140625 -4.203125 63.828125 -4.203125 Z M 63.828125 -4.203125 "/></g></g></g><g fill="#fab6c4" fill-opacity="1"><g transform="translate(439.339007, 556.626203)"><g><path d="M 10.5 0.53125 C 9.5625 0.53125 8.800781 0.148438 8.21875 -0.609375 C 7.632812 -1.367188 7.34375 -2.273438 7.34375 -3.328125 C 7.457031 -5.078125 7.832031 -6.125 8.46875 -6.46875 C 9.113281 -6.820312 10.253906 -7 11.890625 -7 C 15.273438 -7 17.78125 -7.609375 19.40625 -8.828125 C 21.039062 -10.054688 22.0625 -11.570312 22.46875 -13.375 C 22.875 -15.1875 23.140625 -17.550781 23.265625 -20.46875 L 23.265625 -89.890625 C 23.140625 -92.804688 22.875 -95.164062 22.46875 -96.96875 C 22.0625 -98.78125 21.039062 -100.296875 19.40625 -101.515625 C 17.78125 -102.742188 15.273438 -103.359375 11.890625 -103.359375 L 10.84375 -103.359375 C 9.675781 -103.359375 8.828125 -103.5625 8.296875 -103.96875 C 7.773438 -104.375 7.457031 -105.394531 7.34375 -107.03125 C 7.34375 -108.082031 7.632812 -108.984375 8.21875 -109.734375 C 8.800781 -110.492188 9.5625 -110.875 10.5 -110.875 C 18.070312 -110.53125 25.066406 -110.359375 31.484375 -110.359375 L 57.71875 -110.359375 C 67.851562 -110.359375 77.671875 -108.257812 87.171875 -104.0625 C 96.679688 -99.863281 101.4375 -91.46875 101.4375 -78.875 C 101.4375 -71.875 99.335938 -65.632812 95.140625 -60.15625 C 90.941406 -54.675781 85.488281 -50.421875 78.78125 -47.390625 C 72.082031 -44.359375 65.117188 -42.84375 57.890625 -42.84375 C 51.242188 -42.84375 45.414062 -43.773438 40.40625 -45.640625 L 40.40625 -20.46875 C 40.519531 -17.550781 40.78125 -15.1875 41.1875 -13.375 C 41.59375 -11.570312 42.613281 -10.054688 44.25 -8.828125 C 45.882812 -7.609375 48.390625 -7 51.765625 -7 L 52.8125 -7 C 53.976562 -7 54.820312 -6.789062 55.34375 -6.375 C 55.875 -5.96875 56.195312 -4.953125 56.3125 -3.328125 C 56.3125 -2.273438 56.046875 -1.367188 55.515625 -0.609375 C 54.992188 0.148438 54.210938 0.53125 53.171875 0.53125 C 45.703125 0.175781 38.414062 0 31.3125 0 C 25.007812 0 18.070312 0.175781 10.5 0.53125 Z M 52.8125 -50.71875 C 57.007812 -50.71875 61.351562 -51.5625 65.84375 -53.25 C 70.332031 -54.945312 74.148438 -57.863281 77.296875 -62 C 80.453125 -66.132812 82.03125 -71.582031 82.03125 -78.34375 C 82.03125 -88.601562 78.765625 -95.425781 72.234375 -98.8125 C 65.703125 -102.195312 58.765625 -103.890625 51.421875 -103.890625 C 48.390625 -103.890625 46.113281 -103.566406 44.59375 -102.921875 C 43.082031 -102.285156 42.003906 -101.03125 41.359375 -99.15625 C 40.722656 -97.289062 40.40625 -94.378906 40.40625 -90.421875 L 40.40625 -52.640625 C 43.195312 -51.359375 47.332031 -50.71875 52.8125 -50.71875 Z M 52.8125 -50.71875 "/></g></g></g><g fill="#fab6c4" fill-opacity="1"><g transform="translate(544.965886, 556.626203)"><g><path d="M 31.3125 0.53125 C 30.257812 0.53125 29.46875 0.148438 28.9375 -0.609375 C 28.414062 -1.367188 28.15625 -2.273438 28.15625 -3.328125 C 28.269531 -5.078125 28.617188 -6.125 29.203125 -6.46875 C 29.785156 -6.820312 30.894531 -7 32.53125 -7 C 35.90625 -7 38.410156 -7.609375 40.046875 -8.828125 C 41.679688 -10.054688 42.703125 -11.570312 43.109375 -13.375 C 43.515625 -15.1875 43.773438 -17.550781 43.890625 -20.46875 L 43.890625 -103.890625 L 31.828125 -103.890625 C 27.867188 -103.765625 24.804688 -102.914062 22.640625 -101.34375 C 20.484375 -99.769531 18.851562 -97.4375 17.75 -94.34375 C 16.644531 -91.257812 15.679688 -86.863281 14.859375 -81.15625 C 14.742188 -80.21875 14.046875 -79.457031 12.765625 -78.875 C 11.484375 -78.289062 10.144531 -78 8.75 -78 C 7.695312 -78 6.734375 -78.316406 5.859375 -78.953125 C 4.984375 -79.597656 4.546875 -80.445312 4.546875 -81.5 L 5.078125 -106.15625 C 5.078125 -108.957031 6.648438 -110.359375 9.796875 -110.359375 L 95.3125 -110.359375 C 98.34375 -110.359375 99.859375 -108.957031 99.859375 -106.15625 L 100.5625 -81.5 C 100.5625 -80.445312 100.09375 -79.597656 99.15625 -78.953125 C 98.226562 -78.316406 97.238281 -78 96.1875 -78 C 94.789062 -78 93.476562 -78.289062 92.25 -78.875 C 91.03125 -79.457031 90.363281 -80.21875 90.25 -81.15625 C 89.3125 -86.976562 88.316406 -91.40625 87.265625 -94.4375 C 86.222656 -97.46875 84.59375 -99.769531 82.375 -101.34375 C 80.15625 -102.914062 77.066406 -103.765625 73.109375 -103.890625 L 61.21875 -103.890625 L 61.21875 -20.46875 C 61.332031 -17.550781 61.59375 -15.1875 62 -13.375 C 62.40625 -11.570312 63.421875 -10.054688 65.046875 -8.828125 C 66.679688 -7.609375 69.191406 -7 72.578125 -7 L 73.625 -7 C 74.675781 -7 75.460938 -6.789062 75.984375 -6.375 C 76.515625 -5.96875 76.835938 -4.953125 76.953125 -3.328125 C 76.953125 -2.273438 76.6875 -1.367188 76.15625 -0.609375 C 75.632812 0.148438 74.847656 0.53125 73.796875 0.53125 C 66.335938 0.175781 59.460938 0 53.171875 0 C 46.171875 0 38.882812 0.175781 31.3125 0.53125 Z M 31.3125 0.53125 "/></g></g></g><g fill="#fab6c4" fill-opacity="1"><g transform="translate(649.893257, 556.626203)"><g><path d="M 10.5 0.53125 C 9.445312 0.53125 8.65625 0.148438 8.125 -0.609375 C 7.601562 -1.367188 7.34375 -2.273438 7.34375 -3.328125 C 7.457031 -5.078125 7.832031 -6.125 8.46875 -6.46875 C 9.113281 -6.820312 10.195312 -7 11.71875 -7 C 15.101562 -7 17.609375 -7.609375 19.234375 -8.828125 C 20.867188 -10.054688 21.914062 -11.546875 22.375 -13.296875 C 22.84375 -15.046875 23.140625 -17.4375 23.265625 -20.46875 L 23.265625 -89.890625 C 23.140625 -92.921875 22.84375 -95.3125 22.375 -97.0625 C 21.914062 -98.8125 20.867188 -100.296875 19.234375 -101.515625 C 17.609375 -102.742188 15.101562 -103.359375 11.71875 -103.359375 L 10.671875 -103.359375 C 9.617188 -103.359375 8.828125 -103.5625 8.296875 -103.96875 C 7.773438 -104.375 7.457031 -105.394531 7.34375 -107.03125 C 7.34375 -108.082031 7.601562 -108.984375 8.125 -109.734375 C 8.65625 -110.492188 9.445312 -110.875 10.5 -110.875 C 18.070312 -110.53125 25.007812 -110.359375 31.3125 -110.359375 C 38.300781 -110.359375 45.585938 -110.53125 53.171875 -110.875 C 54.210938 -110.875 54.992188 -110.492188 55.515625 -109.734375 C 56.046875 -108.984375 56.3125 -108.082031 56.3125 -107.03125 C 56.195312 -105.28125 55.816406 -104.226562 55.171875 -103.875 C 54.535156 -103.53125 53.398438 -103.359375 51.765625 -103.359375 C 48.390625 -103.359375 45.882812 -102.742188 44.25 -101.515625 C 42.613281 -100.296875 41.59375 -98.78125 41.1875 -96.96875 C 40.78125 -95.164062 40.519531 -92.804688 40.40625 -89.890625 L 40.40625 -20.46875 C 40.519531 -17.550781 40.78125 -15.1875 41.1875 -13.375 C 41.59375 -11.570312 42.613281 -10.054688 44.25 -8.828125 C 45.882812 -7.609375 48.390625 -7 51.765625 -7 L 52.8125 -7 C 53.976562 -7 54.820312 -6.789062 55.34375 -6.375 C 55.875 -5.96875 56.195312 -4.953125 56.3125 -3.328125 C 56.3125 -2.273438 56.046875 -1.367188 55.515625 -0.609375 C 54.992188 0.148438 54.210938 0.53125 53.171875 0.53125 C 45.703125 0.175781 38.472656 0 31.484375 0 C 25.066406 0 18.070312 0.175781 10.5 0.53125 Z M 10.5 0.53125 "/></g></g></g><g fill="#fab6c4" fill-opacity="1"><g transform="translate(713.549206, 556.626203)"><g><path d="M 74.859375 0.875 C 73.109375 0.875 71.882812 0.289062 71.1875 -0.875 L 31.828125 -89.890625 L 31.3125 -89.890625 L 31.65625 -20.46875 C 31.769531 -17.3125 32 -14.890625 32.34375 -13.203125 C 32.695312 -11.515625 33.660156 -10.054688 35.234375 -8.828125 C 36.804688 -7.609375 39.285156 -7 42.671875 -7 L 43.71875 -7 C 44.882812 -7 45.726562 -6.789062 46.25 -6.375 C 46.78125 -5.96875 47.101562 -4.953125 47.21875 -3.328125 C 47.21875 -2.273438 46.953125 -1.367188 46.421875 -0.609375 C 45.898438 0.148438 45.117188 0.53125 44.078125 0.53125 L 39.703125 0.34375 C 34.335938 0.113281 30.488281 0 28.15625 0 C 24.195312 0 18.425781 0.175781 10.84375 0.53125 C 9.789062 0.53125 9 0.148438 8.46875 -0.609375 C 7.945312 -1.367188 7.6875 -2.273438 7.6875 -3.328125 C 7.8125 -5.078125 8.164062 -6.125 8.75 -6.46875 C 9.332031 -6.820312 10.4375 -7 12.0625 -7 C 15.445312 -7 17.925781 -7.609375 19.5 -8.828125 C 21.070312 -10.054688 22.03125 -11.515625 22.375 -13.203125 C 22.726562 -14.890625 22.960938 -17.3125 23.078125 -20.46875 L 23.4375 -89.890625 C 23.4375 -93.503906 23.023438 -96.210938 22.203125 -98.015625 C 21.390625 -99.828125 20.195312 -101.113281 18.625 -101.875 C 17.050781 -102.632812 14.75 -103.304688 11.71875 -103.890625 C 11.25 -104.003906 10.546875 -104.144531 9.609375 -104.3125 C 8.679688 -104.488281 8.070312 -104.835938 7.78125 -105.359375 C 7.488281 -105.890625 7.34375 -106.738281 7.34375 -107.90625 C 7.34375 -109.300781 7.722656 -110.234375 8.484375 -110.703125 C 9.242188 -111.171875 10.4375 -111.40625 12.0625 -111.40625 C 18.945312 -111.40625 24.601562 -110.96875 29.03125 -110.09375 C 33.457031 -109.21875 37.332031 -107.4375 40.65625 -104.75 C 43.976562 -102.070312 46.75 -98.109375 48.96875 -92.859375 L 79.046875 -25.359375 L 79.578125 -25.359375 L 114.03125 -110.359375 L 124 -110.359375 C 130.40625 -110.359375 137.34375 -110.53125 144.8125 -110.875 C 145.863281 -110.875 146.648438 -110.492188 147.171875 -109.734375 C 147.691406 -108.984375 147.953125 -108.082031 147.953125 -107.03125 C 147.835938 -105.28125 147.457031 -104.226562 146.8125 -103.875 C 146.175781 -103.53125 145.097656 -103.359375 143.578125 -103.359375 C 140.203125 -103.359375 137.695312 -102.742188 136.0625 -101.515625 C 134.425781 -100.296875 133.40625 -98.78125 133 -96.96875 C 132.59375 -95.164062 132.332031 -92.804688 132.21875 -89.890625 L 132.21875 -20.46875 C 132.332031 -17.550781 132.59375 -15.1875 133 -13.375 C 133.40625 -11.570312 134.425781 -10.054688 136.0625 -8.828125 C 137.695312 -7.609375 140.203125 -7 143.578125 -7 L 144.640625 -7 C 145.679688 -7 146.460938 -6.789062 146.984375 -6.375 C 147.515625 -5.96875 147.835938 -4.953125 147.953125 -3.328125 C 147.953125 -2.273438 147.691406 -1.367188 147.171875 -0.609375 C 146.648438 0.148438 145.863281 0.53125 144.8125 0.53125 C 137.34375 0.175781 130.347656 0 123.828125 0 C 117.054688 0 109.882812 0.175781 102.3125 0.53125 C 101.257812 0.53125 100.46875 0.148438 99.9375 -0.609375 C 99.414062 -1.367188 99.15625 -2.273438 99.15625 -3.328125 C 99.28125 -5.078125 99.632812 -6.125 100.21875 -6.46875 C 100.800781 -6.820312 101.90625 -7 103.53125 -7 C 106.914062 -7 109.421875 -7.609375 111.046875 -8.828125 C 112.679688 -10.054688 113.703125 -11.570312 114.109375 -13.375 C 114.523438 -15.1875 114.789062 -17.550781 114.90625 -20.46875 L 114.90625 -89.890625 L 114.375 -89.890625 L 78.34375 -0.875 C 77.882812 0.289062 76.722656 0.875 74.859375 0.875 Z M 74.859375 0.875 "/></g></g></g><g fill="#fab6c4" fill-opacity="1"><g transform="translate(869.016593, 556.626203)"><g><path d="M 10.5 0.53125 C 9.445312 0.53125 8.65625 0.148438 8.125 -0.609375 C 7.601562 -1.367188 7.34375 -2.273438 7.34375 -3.328125 C 7.457031 -5.078125 7.832031 -6.125 8.46875 -6.46875 C 9.113281 -6.820312 10.195312 -7 11.71875 -7 C 15.101562 -7 17.609375 -7.609375 19.234375 -8.828125 C 20.867188 -10.054688 21.914062 -11.546875 22.375 -13.296875 C 22.84375 -15.046875 23.140625 -17.4375 23.265625 -20.46875 L 23.265625 -89.890625 C 23.140625 -92.921875 22.84375 -95.3125 22.375 -97.0625 C 21.914062 -98.8125 20.867188 -100.296875 19.234375 -101.515625 C 17.609375 -102.742188 15.101562 -103.359375 11.71875 -103.359375 L 10.671875 -103.359375 C 9.617188 -103.359375 8.828125 -103.5625 8.296875 -103.96875 C 7.773438 -104.375 7.457031 -105.394531 7.34375 -107.03125 C 7.34375 -108.082031 7.601562 -108.984375 8.125 -109.734375 C 8.65625 -110.492188 9.445312 -110.875 10.5 -110.875 C 18.070312 -110.53125 25.007812 -110.359375 31.3125 -110.359375 C 38.300781 -110.359375 45.585938 -110.53125 53.171875 -110.875 C 54.210938 -110.875 54.992188 -110.492188 55.515625 -109.734375 C 56.046875 -108.984375 56.3125 -108.082031 56.3125 -107.03125 C 56.195312 -105.28125 55.816406 -104.226562 55.171875 -103.875 C 54.535156 -103.53125 53.398438 -103.359375 51.765625 -103.359375 C 48.390625 -103.359375 45.882812 -102.742188 44.25 -101.515625 C 42.613281 -100.296875 41.59375 -98.78125 41.1875 -96.96875 C 40.78125 -95.164062 40.519531 -92.804688 40.40625 -89.890625 L 40.40625 -20.46875 C 40.519531 -17.550781 40.78125 -15.1875 41.1875 -13.375 C 41.59375 -11.570312 42.613281 -10.054688 44.25 -8.828125 C 45.882812 -7.609375 48.390625 -7 51.765625 -7 L 52.8125 -7 C 53.976562 -7 54.820312 -6.789062 55.34375 -6.375 C 55.875 -5.96875 56.195312 -4.953125 56.3125 -3.328125 C 56.3125 -2.273438 56.046875 -1.367188 55.515625 -0.609375 C 54.992188 0.148438 54.210938 0.53125 53.171875 0.53125 C 45.703125 0.175781 38.472656 0 31.484375 0 C 25.066406 0 18.070312 0.175781 10.5 0.53125 Z M 10.5 0.53125 "/></g></g></g><g fill="#fab6c4" fill-opacity="1"><g transform="translate(932.67252, 556.626203)"><g><path d="M 46.34375 3.5 C 34.101562 3.5 24.742188 1.375 18.265625 -2.875 C 11.796875 -7.132812 8.5625 -13.40625 8.5625 -21.6875 C 8.5625 -25.882812 9.988281 -29.351562 12.84375 -32.09375 C 15.707031 -34.832031 19.410156 -36.203125 23.953125 -36.203125 C 26.640625 -36.085938 28.679688 -35.414062 30.078125 -34.1875 C 31.484375 -32.96875 32.1875 -31.832031 32.1875 -30.78125 C 32.1875 -30.664062 31.601562 -30.253906 30.4375 -29.546875 C 29.269531 -28.847656 28.21875 -27.800781 27.28125 -26.40625 C 26.351562 -25.007812 25.890625 -23.085938 25.890625 -20.640625 C 25.890625 -15.160156 27.550781 -10.929688 30.875 -7.953125 C 34.195312 -4.984375 39.351562 -3.5 46.34375 -3.5 C 51.125 -3.5 55.320312 -4.429688 58.9375 -6.296875 C 62.550781 -8.160156 65.316406 -10.632812 67.234375 -13.71875 C 69.160156 -16.8125 70.125 -20.050781 70.125 -23.4375 C 70.125 -27.632812 68.925781 -31.25 66.53125 -34.28125 C 64.144531 -37.3125 61.203125 -39.847656 57.703125 -41.890625 C 54.210938 -43.929688 49.4375 -46.289062 43.375 -48.96875 C 36.375 -52.113281 30.71875 -54.96875 26.40625 -57.53125 C 22.09375 -60.101562 18.421875 -63.515625 15.390625 -67.765625 C 12.359375 -72.023438 10.84375 -77.300781 10.84375 -83.59375 C 10.84375 -93.738281 14.3125 -101.316406 21.25 -106.328125 C 28.1875 -111.347656 37.3125 -113.859375 48.625 -113.859375 C 57.476562 -113.859375 65.195312 -111.988281 71.78125 -108.25 C 78.375 -104.519531 81.671875 -99.039062 81.671875 -91.8125 C 81.671875 -87.613281 80.242188 -84.144531 77.390625 -81.40625 C 74.535156 -78.664062 70.832031 -77.296875 66.28125 -77.296875 C 63.601562 -77.410156 61.5625 -78.082031 60.15625 -79.3125 C 58.757812 -80.539062 58.0625 -81.675781 58.0625 -82.71875 C 58.0625 -82.832031 58.847656 -83.238281 60.421875 -83.9375 C 61.992188 -84.644531 63.390625 -85.695312 64.609375 -87.09375 C 65.835938 -88.488281 66.453125 -90.410156 66.453125 -92.859375 C 66.453125 -97.179688 64.789062 -100.566406 61.46875 -103.015625 C 58.144531 -105.460938 53.921875 -106.6875 48.796875 -106.6875 C 41.679688 -106.6875 36.285156 -105.023438 32.609375 -101.703125 C 28.941406 -98.378906 27.109375 -94.269531 27.109375 -89.375 C 27.109375 -85.289062 28.210938 -81.878906 30.421875 -79.140625 C 32.640625 -76.398438 36.195312 -73.6875 41.09375 -71 C 45.0625 -68.90625 49.378906 -66.804688 54.046875 -64.703125 C 61.503906 -61.328125 67.414062 -58.238281 71.78125 -55.4375 C 76.15625 -52.644531 79.828125 -48.972656 82.796875 -44.421875 C 85.773438 -39.867188 87.265625 -34.210938 87.265625 -27.453125 C 87.265625 -21.628906 85.425781 -16.351562 81.75 -11.625 C 78.082031 -6.90625 73.128906 -3.203125 66.890625 -0.515625 C 60.648438 2.160156 53.800781 3.5 46.34375 3.5 Z M 46.34375 3.5 "/></g></g></g><g fill="#fab6c4" fill-opacity="1"><g transform="translate(1027.981566, 556.626203)"><g><path d="M 31.3125 0.53125 C 30.257812 0.53125 29.46875 0.148438 28.9375 -0.609375 C 28.414062 -1.367188 28.15625 -2.273438 28.15625 -3.328125 C 28.269531 -5.078125 28.617188 -6.125 29.203125 -6.46875 C 29.785156 -6.820312 30.894531 -7 32.53125 -7 C 35.90625 -7 38.410156 -7.609375 40.046875 -8.828125 C 41.679688 -10.054688 42.703125 -11.570312 43.109375 -13.375 C 43.515625 -15.1875 43.773438 -17.550781 43.890625 -20.46875 L 43.890625 -103.890625 L 31.828125 -103.890625 C 27.867188 -103.765625 24.804688 -102.914062 22.640625 -101.34375 C 20.484375 -99.769531 18.851562 -97.4375 17.75 -94.34375 C 16.644531 -91.257812 15.679688 -86.863281 14.859375 -81.15625 C 14.742188 -80.21875 14.046875 -79.457031 12.765625 -78.875 C 11.484375 -78.289062 10.144531 -78 8.75 -78 C 7.695312 -78 6.734375 -78.316406 5.859375 -78.953125 C 4.984375 -79.597656 4.546875 -80.445312 4.546875 -81.5 L 5.078125 -106.15625 C 5.078125 -108.957031 6.648438 -110.359375 9.796875 -110.359375 L 95.3125 -110.359375 C 98.34375 -110.359375 99.859375 -108.957031 99.859375 -106.15625 L 100.5625 -81.5 C 100.5625 -80.445312 100.09375 -79.597656 99.15625 -78.953125 C 98.226562 -78.316406 97.238281 -78 96.1875 -78 C 94.789062 -78 93.476562 -78.289062 92.25 -78.875 C 91.03125 -79.457031 90.363281 -80.21875 90.25 -81.15625 C 89.3125 -86.976562 88.316406 -91.40625 87.265625 -94.4375 C 86.222656 -97.46875 84.59375 -99.769531 82.375 -101.34375 C 80.15625 -102.914062 77.066406 -103.765625 73.109375 -103.890625 L 61.21875 -103.890625 L 61.21875 -20.46875 C 61.332031 -17.550781 61.59375 -15.1875 62 -13.375 C 62.40625 -11.570312 63.421875 -10.054688 65.046875 -8.828125 C 66.679688 -7.609375 69.191406 -7 72.578125 -7 L 73.625 -7 C 74.675781 -7 75.460938 -6.789062 75.984375 -6.375 C 76.515625 -5.96875 76.835938 -4.953125 76.953125 -3.328125 C 76.953125 -2.273438 76.6875 -1.367188 76.15625 -0.609375 C 75.632812 0.148438 74.847656 0.53125 73.796875 0.53125 C 66.335938 0.175781 59.460938 0 53.171875 0 C 46.171875 0 38.882812 0.175781 31.3125 0.53125 Z M 31.3125 0.53125 "/></g></g></g><g fill="#fab6c4" fill-opacity="1"><g transform="translate(1132.920125, 556.626203)"><g/></g></g></svg>